<svg width="778" height="179" viewBox="0 0 778 179" fill="none" xmlns="http://www.w3.org/2000/svg">
<g filter="url(#filter0_d_19_5530)">
<path d="M89.5 52H52V82H89.5V74.5H97V59.5H89.5V52ZM97 37V44.5H104.5V52H112V82H104.5V89.5H97V97H52V142H37V37H97ZM149.441 82V89.5H141.941V97H186.941V89.5H179.441V82H149.441ZM134.441 74.5H141.941V67H186.941V74.5H194.441V82H201.941V112H141.941V119.5H149.441V127H186.941V142H141.941V134.5H134.441V127H126.941V82H134.441V74.5ZM269.383 52H231.883V82H269.383V74.5H276.883V59.5H269.383V52ZM276.883 37V44.5H284.383V52H291.883V82H284.383V89.5H276.883V97H231.883V142H216.883V37H276.883ZM329.324 82V89.5H321.824V97H366.824V89.5H359.324V82H329.324ZM314.324 74.5H321.824V67H366.824V74.5H374.324V82H381.824V112H321.824V119.5H329.324V127H366.824V142H321.824V134.5H314.324V127H306.824V82H314.324V74.5ZM411.766 82H449.266V74.5H456.766V59.5H449.266V52H411.766V82ZM464.266 127H471.766V142H456.766V134.5H449.266V127H441.766V119.5H434.266V112H426.766V104.65H419.266V97H411.766V142H396.766V37H456.766V44.5H464.266V52H471.766V82H464.266V89.5H456.766V97H441.766V104.5H449.266V112H456.766V119.5H464.266V127ZM509.207 112V127H546.707V112H509.207ZM494.207 104.5H501.707V97H546.707V89.5H539.207V82H501.707V67H546.707V74.5H554.207V82H561.707V142H501.707V134.5H494.207V127H486.707V112H494.207V104.5ZM599.148 127H651.648V142H591.648V134.5H584.148V127H576.648V82H584.148V74.5H591.648V67H651.648V82H599.148V89.5H591.648V119.5H599.148V127ZM689.09 82V89.5H681.59V97H726.59V89.5H719.09V82H689.09ZM674.09 74.5H681.59V67H726.59V74.5H734.09V82H741.59V112H681.59V119.5H689.09V127H726.59V142H681.59V134.5H674.09V127H666.59V82H674.09V74.5Z" fill="#049C5F"/>
</g>
<defs>
<filter id="filter0_d_19_5530" x="0.712002" y="0.712002" width="777.166" height="177.576" filterUnits="userSpaceOnUse" color-interpolation-filters="sRGB">
<feFlood flood-opacity="0" result="BackgroundImageFix"/>
<feColorMatrix in="SourceAlpha" type="matrix" values="0 0 0 0 0 0 0 0 0 0 0 0 0 0 0 0 0 0 127 0" result="hardAlpha"/>
<feOffset/>
<feGaussianBlur stdDeviation="18.144"/>
<feColorMatrix type="matrix" values="0 0 0 0 0.0156863 0 0 0 0 0.611765 0 0 0 0 0.372549 0 0 0 1 0"/>
<feBlend mode="normal" in2="BackgroundImageFix" result="effect1_dropShadow_19_5530"/>
<feBlend mode="normal" in="SourceGraphic" in2="effect1_dropShadow_19_5530" result="shape"/>
</filter>
</defs>
</svg>
